<?xml version="1.0" encoding="UTF-8" standalone="no"?>
<svg
   xmlns:dc="http://purl.org/dc/elements/1.1/"
   xmlns:cc="http://creativecommons.org/ns#"
   xmlns:rdf="http://www.w3.org/1999/02/22-rdf-syntax-ns#"
   xmlns:svg="http://www.w3.org/2000/svg"
   xmlns="http://www.w3.org/2000/svg"
   xmlns:xlink="http://www.w3.org/1999/xlink"
   xmlns:sodipodi="http://sodipodi.sourceforge.net/DTD/sodipodi-0.dtd"
   xmlns:inkscape="http://www.inkscape.org/namespaces/inkscape"
   sodipodi:docname="tech_logo.svg"
   inkscape:version="1.0 (4035a4fb49, 2020-05-01)"
   id="svg8"
   version="1.1"
   viewBox="0 0 210 297"
   height="297mm"
   width="210mm">
  <defs
     id="defs2">
    <path
       d="M1.25273437,280.731641 L2.85834533,277.600858 L102.211177,89.0833546 L58.0613266,5.6082033 C54.3920011,-1.28304578 45.0741245,0.473674398 43.8699203,8.18789086 L1.25273437,280.731641 Z"
       id="path-1" />
    <filter
       x="-50%"
       y="-50%"
       width="200%"
       height="200%"
       filterUnits="objectBoundingBox"
       id="filter-2">
      <feGaussianBlur
         stdDeviation="17.5"
         in="SourceAlpha"
         result="shadowBlurInner1"
         id="feGaussianBlur864" />
      <feOffset
         dx="0"
         dy="0"
         in="shadowBlurInner1"
         result="shadowOffsetInner1"
         id="feOffset866" />
      <feComposite
         in="shadowOffsetInner1"
         in2="SourceAlpha"
         operator="arithmetic"
         k2="-1"
         k3="1"
         result="shadowInnerInner1"
         id="feComposite868" />
      <feColorMatrix
         values="0 0 0 0 0   0 0 0 0 0   0 0 0 0 0  0 0 0 0.06 0"
         type="matrix"
         in="shadowInnerInner1"
         id="feColorMatrix870" />
    </filter>
    <path
       d="M134.417103,148.974235 L166.455722,116.161738 L134.417104,55.1546874 C131.374828,49.3635911 123.983911,48.7568362 120.973828,54.5646483 L103.26875,88.6738296 L102.739423,90.4175473 L134.417103,148.974235 Z"
       id="path-3" />
    <filter
       x="-50%"
       y="-50%"
       width="200%"
       height="200%"
       filterUnits="objectBoundingBox"
       id="filter-4">
      <feGaussianBlur
         stdDeviation="3.5"
         in="SourceAlpha"
         result="shadowBlurInner1"
         id="feGaussianBlur874" />
      <feOffset
         dx="1"
         dy="-9"
         in="shadowBlurInner1"
         result="shadowOffsetInner1"
         id="feOffset876" />
      <feComposite
         in="shadowOffsetInner1"
         in2="SourceAlpha"
         operator="arithmetic"
         k2="-1"
         k3="1"
         result="shadowInnerInner1"
         id="feComposite878" />
      <feColorMatrix
         values="0 0 0 0 0   0 0 0 0 0   0 0 0 0 0  0 0 0 0.09 0"
         type="matrix"
         in="shadowInnerInner1"
         id="feColorMatrix880" />
    </filter>
  </defs>
  <sodipodi:namedview
     inkscape:window-maximized="1"
     inkscape:window-y="22"
     inkscape:window-x="-8"
     inkscape:window-height="1027"
     inkscape:window-width="1920"
     showgrid="false"
     inkscape:document-rotation="0"
     inkscape:current-layer="layer1"
     inkscape:document-units="mm"
     inkscape:cy="396.06143"
     inkscape:cx="214.552"
     inkscape:zoom="0.7"
     inkscape:pageshadow="2"
     inkscape:pageopacity="0.0"
     borderopacity="1.0"
     bordercolor="#666666"
     pagecolor="#ffffff"
     id="base" />
  <metadata
     id="metadata5">
    <rdf:RDF>
      <cc:Work
         rdf:about="">
        <dc:format>image/svg+xml</dc:format>
        <dc:type
           rdf:resource="http://purl.org/dc/dcmitype/StillImage" />
        <dc:title></dc:title>
      </cc:Work>
    </rdf:RDF>
  </metadata>
  <g
     id="layer1"
     inkscape:groupmode="layer"
     inkscape:label="Layer 1">
    <g
       inkscape:export-ydpi="150"
       inkscape:export-xdpi="150"
       transform="matrix(0.10646605,0,0,0.10646605,33.38702,14.794173)"
       id="g850">
      <path
         d="M 0.1,45.522 125.908,0.697 255.104,44.725 234.185,211.175 125.908,271.141 19.325,211.972 Z"
         fill="#e23237"
         id="path833" />
      <path
         d="M 255.104,44.725 125.908,0.697 v 270.444 l 108.277,-59.866 z"
         fill="#b52e31"
         id="path835" />
      <path
         d="m 126.107,32.274 -78.393,174.419 29.285,-0.498 15.739,-39.347 h 70.325 l 17.233,39.845 27.99,0.498 z m 0.2,55.882 26.496,55.383 h -49.806 z"
         fill="#ffffff"
         id="path837" />
    </g>
    <path
       inkscape:export-ydpi="150"
       inkscape:export-xdpi="150"
       style="stroke-width:0.319353"
       fill="#019bc6"
       d="m 144.1909,73.59513 c -1.37322,-0.798383 -3.19353,-0.894189 -4.72643,-0.447095 -0.19162,-1.660636 -1.27741,-3.097725 -2.55483,-4.119656 l -0.51096,-0.415159 -0.4471,0.510964 c -0.86225,0.989995 -1.11773,2.650633 -0.98999,3.928045 0.0958,0.926125 0.38322,1.884185 0.95806,2.650633 -0.44709,0.255482 -0.92613,0.606771 -1.37322,0.766448 -0.89419,0.319353 -1.88418,0.638706 -2.84224,0.638706 h -2.13967 v -4.502881 h -4.1516 v -7.983831 h -4.7903 v 3.832239 h -7.98382 v 4.151592 h -4.1516 v 4.470946 h -3.57676 l -0.0639,0.47903 c -0.15967,2.043859 0.0958,4.02385 0.95806,5.908035 l 0.3513,0.702576 0.0319,0.06388 c 2.52289,4.279333 6.92996,6.067712 11.75221,6.067712 9.3251,0 17.02153,-4.183528 20.53441,-12.965741 2.36321,0.12774 4.7903,-0.574836 5.93997,-2.842245 l 0.28742,-0.574835 z m -30.9134,-4.183528 h 3.19354 v 3.512887 h -3.19354 z m 4.18353,14.115414 c 0,0.542901 -0.4471,0.989996 -0.98999,0.989996 -0.54291,0 -0.99,-0.447095 -0.99,-0.989996 0,-0.5429 0.44709,-0.989995 0.99,-0.989995 0.54289,0.03194 0.98999,0.447095 0.98999,0.989995 z m -4.18353,-9.963821 h 3.19354 v 3.512886 h -3.19354 z m -4.1516,0 h 3.5129 v 3.512886 h -3.5129 z m 8.84609,16.031533 c -5.04578,-0.03194 -7.76029,-1.724507 -9.99575,-3.95998 0.67064,0.03194 1.30934,0.06388 1.88418,0.06388 0.51097,0 1.02193,0 1.50096,-0.03194 1.24547,-0.06388 2.33127,-0.223549 3.22547,-0.47903 0.73451,1.692571 2.07579,3.257403 4.47094,4.407074 z m 2.65063,-12.518647 h -3.51288 v -3.512886 h 3.51288 z m 0,-4.151592 h -3.51288 v -3.512887 h 3.51288 z m 4.1516,4.151592 h -3.51288 v -3.512886 h 3.51288 z m 0,-4.151592 h -3.51288 v -3.512887 h 3.51288 z m 0,-4.151594 h -3.51288 V 65.26001 h 3.51288 z m 4.1516,8.303186 h -3.5129 v -3.512886 h 3.5129 z m -12.19931,5.812229 c -0.0639,-0.03194 -0.15968,-0.06388 -0.25547,-0.06388 -0.38322,0 -0.70259,0.319352 -0.70259,0.702576 0,0.383224 0.31937,0.702578 0.70259,0.702578 0.38322,0 0.70257,-0.319354 0.70257,-0.702578 0,-0.0958 -0.032,-0.191612 -0.0639,-0.255482 -0.0639,0.09581 -0.12773,0.159676 -0.25547,0.159676 -0.15969,0 -0.28743,-0.127741 -0.28743,-0.287418 0.032,-0.127737 0.0958,-0.223543 0.15968,-0.255479 z"
       id="path852" />
    <path
       inkscape:export-ydpi="150"
       inkscape:export-xdpi="150"
       style="stroke-width:0.125491"
       id="path942"
       fill="#e0234e"
       d="m 74.184531,58.614404 c -0.232301,0 -0.448008,0.04978 -0.647128,0.116151 0.423122,0.282084 0.655424,0.655433 0.77158,1.078555 0.0083,0.05807 0.0249,0.09956 0.0332,0.157633 0.0083,0.04978 0.0166,0.09956 0.0166,0.149338 0.0332,0.730092 -0.190825,0.821357 -0.348458,1.252778 -0.240597,0.555869 -0.174228,1.153219 0.116151,1.634419 0.0249,0.05807 0.05808,0.124446 0.09956,0.182524 -0.315266,-2.099027 1.43531,-2.414298 1.758872,-3.069721 0.0249,-0.572465 -0.448013,-0.954104 -0.821357,-1.219593 -0.356748,-0.215711 -0.680322,-0.282084 -0.978997,-0.282084 z m 2.638307,0.472904 c -0.0332,0.19082 -0.0083,0.141042 -0.01655,0.240602 -0.0083,0.06637 -0.0083,0.149338 -0.0166,0.215706 -0.0166,0.06637 -0.0332,0.132747 -0.05808,0.19912 -0.0166,0.06637 -0.0415,0.132747 -0.06637,0.199116 -0.0332,0.06637 -0.05808,0.124451 -0.09126,0.19082 -0.0249,0.0332 -0.0415,0.06637 -0.06637,0.09956 -0.0166,0.0249 -0.0332,0.04978 -0.04978,0.07467 -0.0415,0.05808 -0.08297,0.116151 -0.124446,0.165929 -0.04978,0.04978 -0.09126,0.107855 -0.149342,0.149342 0,0.0083 0,0.0083 0,0.0083 -0.04978,0.0415 -0.09956,0.09126 -0.157633,0.132741 -0.174229,0.132747 -0.373345,0.232302 -0.555869,0.356754 -0.05807,0.0415 -0.116156,0.07467 -0.165933,0.124446 -0.05807,0.0415 -0.107851,0.08296 -0.157629,0.132747 -0.05808,0.04978 -0.09956,0.09956 -0.149342,0.157633 -0.0415,0.04978 -0.09126,0.107855 -0.124446,0.165933 -0.0415,0.05807 -0.08297,0.116151 -0.116156,0.174224 -0.0332,0.06637 -0.05807,0.124451 -0.09126,0.19082 -0.0249,0.06637 -0.04978,0.124451 -0.06637,0.19082 -0.0249,0.07467 -0.0415,0.141042 -0.05807,0.207415 -0.0083,0.0332 -0.0083,0.07467 -0.0166,0.107856 -0.0083,0.0332 -0.0083,0.06637 -0.01655,0.09956 0,0.06637 -0.0083,0.141042 -0.0083,0.20741 0,0.04978 0,0.09956 0.0083,0.149343 0,0.06637 0.0083,0.132742 0.0249,0.207411 0.0083,0.06637 0.0249,0.132742 0.0415,0.19912 0.0249,0.06637 0.0415,0.132742 0.06637,0.19911 0.0166,0.0415 0.0415,0.08297 0.05808,0.116151 l -1.908213,-0.738388 c -0.323567,-0.09126 -0.638833,-0.174224 -0.9624,-0.248897 -0.174224,-0.0415 -0.348452,-0.08297 -0.522681,-0.124447 -0.497791,-0.09956 -1.003877,-0.174224 -1.509968,-0.224006 -0.0166,0 -0.0249,-0.0083 -0.0415,-0.0083 -0.497795,-0.04978 -0.98729,-0.07467 -1.485081,-0.07467 -0.365053,0 -0.730101,0.0166 -1.08685,0.0415 -0.506091,0.0332 -1.012181,0.09956 -1.518267,0.182524 -0.124452,0.0166 -0.248898,0.0415 -0.373349,0.06638 -0.257189,0.04977 -0.506086,0.107851 -0.746684,0.165929 -0.124451,0.0332 -0.248897,0.06637 -0.373348,0.09956 -0.124447,0.04978 -0.240598,0.107855 -0.356754,0.157638 -0.09126,0.0415 -0.182519,0.08296 -0.273784,0.124446 -0.0166,0.0083 -0.0332,0.0083 -0.0415,0.0166 -0.08296,0.0415 -0.157633,0.07466 -0.232302,0.116151 -0.0249,0.0083 -0.0415,0.0166 -0.05808,0.0249 -0.09126,0.0415 -0.18252,0.09126 -0.257189,0.132747 -0.05808,0.0249 -0.116151,0.05807 -0.165933,0.08296 -0.0249,0.0166 -0.05808,0.0332 -0.07467,0.0415 -0.07467,0.0415 -0.149338,0.08296 -0.215711,0.124452 -0.07467,0.0415 -0.141042,0.08296 -0.199115,0.124441 -0.05808,0.0415 -0.116151,0.07467 -0.165934,0.116151 -0.0083,0.0083 -0.0166,0.0083 -0.0249,0.0166 -0.04978,0.0332 -0.107851,0.07467 -0.157633,0.116155 0,0 -0.0083,0.0083 -0.0166,0.0166 -0.0415,0.0332 -0.08296,0.06637 -0.124446,0.09955 -0.0166,0.0083 -0.0332,0.0249 -0.04978,0.0332 -0.0415,0.0332 -0.08296,0.07467 -0.124441,0.107855 -0.0083,0.0166 -0.0249,0.0249 -0.0332,0.0332 -0.04978,0.04978 -0.09956,0.09126 -0.149343,0.141043 -0.0083,0 -0.0083,0.0083 -0.0166,0.0166 -0.04978,0.0415 -0.09956,0.09126 -0.149338,0.141042 -0.0083,0.0083 -0.0083,0.0166 -0.0166,0.0166 -0.0415,0.0415 -0.08296,0.08297 -0.124447,0.132742 -0.0166,0.0166 -0.0415,0.0332 -0.05807,0.04978 -0.0415,0.04978 -0.09126,0.09956 -0.141042,0.149338 -0.0083,0.0166 -0.0249,0.0249 -0.0332,0.0415 -0.06637,0.06638 -0.124451,0.132746 -0.19082,0.19912 -0.0083,0.0083 -0.0166,0.01655 -0.0249,0.0249 -0.132747,0.141042 -0.273789,0.282085 -0.423127,0.406531 -0.149337,0.132742 -0.30697,0.257193 -0.464608,0.365044 -0.165929,0.116156 -0.323562,0.215711 -0.497791,0.315271 -0.165928,0.09126 -0.340157,0.174229 -0.522681,0.248898 -0.174229,0.07467 -0.356754,0.141042 -0.539273,0.199115 -0.348458,0.07467 -0.705211,0.215711 -1.012182,0.240597 -0.06637,0 -0.141042,0.0166 -0.20741,0.0249 -0.07467,0.0166 -0.141043,0.0332 -0.207416,0.04978 -0.06637,0.0249 -0.132747,0.04978 -0.199115,0.07467 -0.06637,0.0249 -0.132747,0.05808 -0.199115,0.09126 -0.05808,0.0415 -0.124452,0.07467 -0.182529,0.116151 -0.05807,0.0415 -0.116151,0.09126 -0.165929,0.141037 -0.05807,0.0415 -0.116151,0.09956 -0.165933,0.149338 -0.04978,0.05808 -0.09956,0.10786 -0.141038,0.165933 -0.0415,0.06637 -0.09126,0.124446 -0.124451,0.19082 -0.0415,0.05808 -0.08296,0.124451 -0.116151,0.190819 -0.0332,0.07467 -0.06637,0.141043 -0.09126,0.215711 -0.0249,0.06637 -0.04978,0.141043 -0.07467,0.215711 -0.0166,0.06637 -0.0332,0.132742 -0.0415,0.199111 0,0.0083 -0.0083,0.0166 -0.0083,0.0249 -0.01655,0.07466 -0.01655,0.174219 -0.0249,0.224001 -0.0083,0.05807 -0.0166,0.107851 -0.0166,0.165929 0,0.0332 0,0.07467 0.0083,0.107855 0.0083,0.05808 0.0166,0.107856 0.0332,0.157638 0.0166,0.04977 0.0332,0.09955 0.05807,0.149333 0,0.0083 0,0.0083 0,0.0083 0.0249,0.04979 0.05808,0.09956 0.09126,0.149343 0.0332,0.04978 0.06638,0.09956 0.10786,0.149337 0.0415,0.0415 0.09126,0.09126 0.141038,0.132742 0.04978,0.04978 0.09956,0.09126 0.157633,0.132742 0.19912,0.174234 0.248897,0.232312 0.506091,0.365054 0.0415,0.0249 0.08297,0.0415 0.132746,0.06637 0.0083,0 0.0166,0.0083 0.0249,0.0083 0,0.0166 0,0.0249 0.0083,0.0415 0.0083,0.06637 0.0249,0.132742 0.0415,0.199115 0.0166,0.07467 0.0415,0.141043 0.06637,0.199116 0.0249,0.04978 0.0415,0.09956 0.06637,0.149342 0.0083,0.0166 0.0166,0.0332 0.0249,0.0415 0.0332,0.06637 0.06637,0.124451 0.09955,0.18252 0.0415,0.05808 0.08296,0.116151 0.124446,0.174233 0.0415,0.04977 0.09126,0.107851 0.141042,0.157629 0.04978,0.04978 0.09956,0.09126 0.157638,0.141042 0,0 0.0083,0.0083 0.0166,0.0083 0.04978,0.0415 0.09955,0.08297 0.149337,0.116146 0.05807,0.0415 0.116151,0.07467 0.18252,0.107861 0.05808,0.0332 0.124451,0.06637 0.190824,0.09126 0.04978,0.0249 0.107851,0.0415 0.165929,0.05808 0.0083,0.0083 0.0166,0.0083 0.0332,0.0166 0.0332,0.0083 0.07466,0.01655 0.107851,0.0249 -0.0249,0.448013 -0.0332,0.871135 0.0332,1.020477 0.07466,0.165929 0.439712,-0.340162 0.804766,-0.920917 -0.04978,0.572464 -0.08297,1.244479 0,1.443599 0.09126,0.207411 0.58905,-0.439722 1.020472,-1.153224 5.882245,-1.360625 11.250114,2.704673 11.814273,8.445881 -0.107855,-0.896026 -1.211292,-1.393816 -1.717378,-1.269369 -0.248898,0.61394 -0.672019,1.40211 -1.352334,1.89161 0.05807,-0.547577 0.0332,-1.111736 -0.08296,-1.659309 -0.182529,0.763283 -0.539283,1.47679 -1.028778,2.090726 -0.788175,0.05807 -1.576345,-0.323566 -1.991176,-0.896025 -0.0332,-0.0249 -0.0415,-0.07467 -0.06637,-0.107856 -0.0249,-0.05808 -0.04978,-0.116146 -0.06637,-0.174229 -0.0249,-0.05807 -0.0415,-0.116151 -0.04978,-0.174224 -0.0083,-0.05808 -0.0083,-0.116151 -0.0083,-0.182524 0,-0.0415 0,-0.08296 0,-0.124446 0.0083,-0.05808 0.0249,-0.116156 0.0415,-0.174234 0.0166,-0.05807 0.0332,-0.116146 0.05808,-0.174224 0.0332,-0.05807 0.05807,-0.116151 0.09956,-0.174224 0.141042,-0.398239 0.141042,-0.721801 -0.116151,-0.912621 -0.04978,-0.0332 -0.09956,-0.05808 -0.157634,-0.08297 -0.0332,-0.0083 -0.07467,-0.0249 -0.107855,-0.0332 -0.0249,-0.0083 -0.0415,-0.0166 -0.06637,-0.0249 -0.05807,-0.0166 -0.116151,-0.0332 -0.174229,-0.0415 -0.05807,-0.01655 -0.116151,-0.0249 -0.174224,-0.0249 -0.05808,-0.0083 -0.124451,-0.0166 -0.182525,-0.0166 -0.0415,0 -0.08297,0.0083 -0.124451,0.0083 -0.06637,0 -0.124446,0.0083 -0.182519,0.0249 -0.05808,0.0083 -0.116151,0.0166 -0.174229,0.0332 -0.05807,0.0166 -0.116151,0.0332 -0.174229,0.05808 -0.05807,0.0249 -0.107855,0.04978 -0.165933,0.07467 -0.04977,0.0249 -0.09955,0.05807 -0.157633,0.08296 -1.933094,1.261073 -0.77987,4.214639 0.539277,5.069183 -0.497795,0.09127 -1.003881,0.19912 -1.144923,0.306971 -0.0083,0.0083 -0.0166,0.0166 -0.0166,0.0166 0.356753,0.215711 0.730097,0.398235 1.120032,0.555869 0.530982,0.174228 1.095141,0.331862 1.344044,0.398235 0,0 0,0.0083 0,0.0083 0.68861,0.141042 1.385521,0.190825 2.090727,0.149342 3.675367,-0.257193 6.687011,-3.05313 7.234586,-6.736792 0.0166,0.07467 0.0332,0.141037 0.04978,0.21571 0.0249,0.149333 0.05807,0.306971 0.07466,0.464604 0,0 0,0 0,0.0083 0.0166,0.07467 0.0249,0.149337 0.0332,0.215706 0,0.0166 0,0.0249 0,0.0332 0.0083,0.07467 0.0166,0.149341 0.0166,0.21571 0.0083,0.09126 0.0166,0.182519 0.0166,0.273789 0,0.0415 0,0.08296 0,0.132741 0,0.0415 0.0083,0.09126 0.0083,0.132747 0,0.04978 -0.0083,0.09955 -0.0083,0.149333 0,0.0415 0,0.08297 0,0.116156 0,0.05808 -0.0083,0.107855 -0.0083,0.165928 0,0.0332 0,0.06637 -0.0083,0.107856 0,0.05808 -0.0083,0.116151 -0.0083,0.182524 -0.0083,0.0249 -0.0083,0.04978 -0.0083,0.07467 -0.0083,0.06637 -0.0166,0.124451 -0.0249,0.190824 0,0.0249 0,0.04978 -0.0083,0.07467 -0.0083,0.08297 -0.0249,0.157633 -0.0332,0.240598 0,0 0,0.0083 0,0.0083 v 0.0083 c -0.0166,0.07467 -0.0332,0.157633 -0.04978,0.232302 0,0.0083 0,0.0166 0,0.0249 -0.01655,0.07466 -0.0332,0.149337 -0.04978,0.224001 0,0.0083 -0.0083,0.0249 -0.0083,0.0332 -0.0166,0.07467 -0.0332,0.149343 -0.05807,0.224016 0,0.0083 0,0.0166 0,0.0249 -0.0249,0.08296 -0.04978,0.157633 -0.06638,0.232302 -0.0083,0.0083 -0.0083,0.0166 -0.0083,0.0166 -0.0249,0.08297 -0.04978,0.165929 -0.07466,0.248893 -0.0332,0.08297 -0.05808,0.157638 -0.09126,0.240602 -0.0332,0.08297 -0.05808,0.165934 -0.09126,0.240598 -0.0332,0.08297 -0.06637,0.157642 -0.09956,0.240602 0,0 -0.0083,0 -0.0083,0 -0.0332,0.07467 -0.06638,0.157638 -0.10786,0.232307 0,0 0,0 0,0 0,0 0,0 0,0 -0.0083,0.0249 -0.0166,0.0415 -0.0249,0.05807 -0.0083,0.0083 -0.0083,0.0166 -0.0166,0.0249 -0.539273,1.086841 -1.335743,2.040945 -2.331324,2.787633 -0.06637,0.0415 -0.132747,0.09126 -0.199115,0.141042 0,0 0,0 0,0 -0.0166,0.0166 -0.0415,0.0249 -0.05808,0.0415 -0.05808,0.0415 -0.116156,0.08297 -0.182525,0.124451 l 0.0249,0.04978 h 0.0083 c 0.116151,-0.0166 0.232302,-0.0332 0.348458,-0.04978 h 0.0083 c 0.215711,-0.0332 0.431422,-0.07467 0.647133,-0.116151 0.05807,-0.0083 0.124451,-0.0249 0.18252,-0.0415 0.0415,-0.0083 0.07467,-0.01655 0.116151,-0.0249 0.05808,-0.0083 0.116151,-0.0249 0.174233,-0.0332 0.04978,-0.0166 0.09955,-0.0249 0.149333,-0.0415 0.829652,-0.19912 1.634423,-0.472909 2.405995,-0.796471 -1.319145,1.800347 -3.08631,3.252241 -5.15215,4.206345 0.954103,-0.06637 1.908207,-0.224006 2.829119,-0.489495 3.343508,-0.98729 6.156037,-3.23565 7.840233,-6.26389 -0.340158,1.916503 -1.103442,3.741741 -2.231769,5.334677 0.804766,-0.530981 1.543158,-1.144923 2.215178,-1.841833 1.858425,-1.94139 3.078017,-4.405461 3.492843,-7.052061 0.282084,1.310852 0.365049,2.663196 0.240597,3.998935 5.990106,-8.354616 0.497796,-17.016203 -1.800347,-19.297755 -0.0083,-0.0166 -0.0166,-0.0249 -0.0166,-0.0415 -0.0083,0.0083 -0.0083,0.0083 -0.0083,0.0166 0,-0.0083 0,-0.0083 -0.0083,-0.0166 0,0.09956 -0.0083,0.199115 -0.0166,0.298675 -0.0249,0.19082 -0.04978,0.373344 -0.08296,0.555869 -0.0415,0.182524 -0.09126,0.365044 -0.141042,0.547573 -0.05807,0.174224 -0.124442,0.356748 -0.199116,0.530977 -0.07467,0.165928 -0.157638,0.340157 -0.248897,0.50609 -0.09126,0.157634 -0.19082,0.323562 -0.298671,0.4729 -0.10786,0.157638 -0.224011,0.306975 -0.340162,0.448013 -0.124451,0.149337 -0.257193,0.282084 -0.38994,0.414831 -0.08296,0.07467 -0.157628,0.141037 -0.240602,0.20741 -0.06637,0.05808 -0.124442,0.107856 -0.19082,0.165929 -0.149333,0.116151 -0.298675,0.224006 -0.464604,0.323566 -0.157633,0.09956 -0.323561,0.199116 -0.48949,0.282085 -0.174229,0.08296 -0.348457,0.157633 -0.522686,0.232302 -0.174229,0.06637 -0.356749,0.124446 -0.539278,0.174229 -0.182524,0.04978 -0.373339,0.09126 -0.555868,0.124446 -0.190815,0.0332 -0.381635,0.04978 -0.564164,0.06637 -0.132742,0.0083 -0.265489,0.0166 -0.39823,0.0166 -0.190825,0 -0.38164,-0.0166 -0.564164,-0.0332 -0.19082,-0.0166 -0.381645,-0.0415 -0.564164,-0.08297 -0.190825,-0.0332 -0.373349,-0.08297 -0.555873,-0.141038 h -0.0083 c 0.182525,-0.0166 0.365049,-0.0332 0.547578,-0.06637 0.190815,-0.0332 0.373339,-0.07467 0.555864,-0.124451 0.182524,-0.04978 0.365048,-0.107856 0.539272,-0.174224 0.182525,-0.06637 0.356754,-0.149338 0.522687,-0.232307 0.174224,-0.08297 0.331862,-0.174224 0.49779,-0.273784 0.157634,-0.107855 0.315267,-0.215706 0.464604,-0.331862 0.149338,-0.116151 0.29038,-0.240597 0.423127,-0.373344 0.141042,-0.124451 0.265488,-0.265489 0.389939,-0.406531 0.124442,-0.149333 0.240598,-0.298675 0.348453,-0.448013 0.0166,-0.0249 0.0332,-0.05807 0.04978,-0.08296 0.08296,-0.132747 0.165924,-0.265488 0.240592,-0.398235 0.09126,-0.165933 0.174229,-0.331862 0.248898,-0.506086 0.07467,-0.174229 0.141042,-0.348458 0.19912,-0.530982 0.05807,-0.174229 0.09956,-0.356748 0.141042,-0.539273 0.0332,-0.19082 0.06637,-0.373349 0.08297,-0.555868 0.0166,-0.19082 0.0332,-0.381644 0.0332,-0.564164 0,-0.132747 -0.0083,-0.265489 -0.0166,-0.398235 -0.0166,-0.19082 -0.0415,-0.373344 -0.06637,-0.555869 -0.0332,-0.190819 -0.07467,-0.373344 -0.124452,-0.555868 -0.05807,-0.174219 -0.116151,-0.356744 -0.182524,-0.530972 -0.06638,-0.174229 -0.149337,-0.348453 -0.232307,-0.514387 -0.09126,-0.165933 -0.182519,-0.331862 -0.282079,-0.489495 -0.107856,-0.157633 -0.215711,-0.30697 -0.331862,-0.456308 -0.124446,-0.141042 -0.248898,-0.282084 -0.381644,-0.423127 -0.06637,-0.06637 -0.141042,-0.141037 -0.215707,-0.20741 -0.373344,-0.29038 -0.763283,-0.564169 -1.153218,-0.813062 -0.05807,-0.0332 -0.107856,-0.05808 -0.165934,-0.08297 -0.273784,-0.174224 -0.530977,-0.265488 -0.78817,-0.348453 z" />
    <path
       inkscape:export-ydpi="150"
       inkscape:export-xdpi="150"
       style="stroke-width:0.110932"
       id="path956"
       fill="#539e43"
       d="m 31.524137,141.67725 c -0.440974,0 -0.852548,-0.11759 -1.234723,-0.32338 l -3.90997,-2.32246 c -0.587963,-0.32339 -0.293982,-0.44098 -0.117594,-0.49978 0.793754,-0.26458 0.940747,-0.32338 1.763896,-0.79375 0.08819,-0.0588 0.205787,-0.0294 0.293985,0.0294 l 2.998619,1.7933 c 0.117593,0.0588 0.264586,0.0588 0.35278,0 l 11.729902,-6.791 c 0.117593,-0.0588 0.17639,-0.17639 0.17639,-0.32338 v -13.55259 c 0,-0.14699 -0.0588,-0.26458 -0.17639,-0.32338 l -11.729902,-6.7616 c -0.117593,-0.0588 -0.264582,-0.0588 -0.35278,0 l -11.729902,6.7616 c -0.117593,0.0588 -0.176388,0.20579 -0.176388,0.32338 v 13.55259 c 0,0.1176 0.05879,0.26459 0.176388,0.32338 l 3.20441,1.8521 c 1.734496,0.88195 2.822231,-0.14699 2.822231,-1.17593 v -13.37621 c 0,-0.17639 0.146993,-0.35278 0.35278,-0.35278 h 1.49931 c 0.176392,0 0.35278,0.14699 0.35278,0.35278 v 13.37621 c 0,2.32246 -1.264123,3.67478 -3.468993,3.67478 -0.67616,0 -1.205328,0 -2.704642,-0.73496 l -3.086817,-1.76389 c -0.764354,-0.44098 -1.234723,-1.26413 -1.234723,-2.14608 v -13.55259 c 0,-0.88195 0.470369,-1.7051 1.234723,-2.14607 l 11.729907,-6.791 c 0.734955,-0.41157 1.734496,-0.41157 2.469451,0 l 11.729902,6.791 c 0.764355,0.44097 1.234728,1.26412 1.234728,2.14607 v 13.55259 c 0,0.88195 -0.470373,1.7051 -1.234728,2.14608 l -11.729902,6.79099 c -0.382175,0.17639 -0.823149,0.26459 -1.234728,0.26459 z m 3.615986,-9.31925 c -5.144695,0 -6.20303,-2.35186 -6.20303,-4.35094 0,-0.17639 0.146993,-0.35278 0.35278,-0.35278 h 1.528709 c 0.176387,0 0.32338,0.11759 0.32338,0.29398 0.235187,1.55811 0.911347,2.32246 4.02756,2.32246 2.469453,0 3.527791,-0.55856 3.527791,-1.88148 0,-0.76436 -0.293984,-1.32293 -4.145155,-1.7051 -3.204409,-0.32338 -5.203491,-1.02894 -5.203491,-3.58659 0,-2.38126 1.999082,-3.79237 5.350483,-3.79237 3.762976,0 5.615066,1.29352 5.850253,4.11575 0,0.0882 -0.0294,0.17639 -0.08819,0.26459 -0.0588,0.0588 -0.146992,0.11759 -0.235187,0.11759 h -1.528708 c -0.146992,0 -0.293984,-0.11759 -0.323382,-0.26459 -0.352778,-1.6169 -1.264124,-2.14607 -3.674781,-2.14607 -2.70464,0 -3.02802,0.94075 -3.02802,1.6463 0,0.85255 0.382179,1.11714 4.02756,1.58751 3.615985,0.47037 5.321084,1.14653 5.321084,3.67478 -0.0294,2.58705 -2.146072,4.05696 -5.879651,4.05696 z" />
    <g
       inkscape:export-ydpi="150"
       inkscape:export-xdpi="150"
       transform="matrix(0.14631444,0,0,0.14631444,-195.85659,48.159714)"
       id="g978">
	
	<polygon
   fill="#61dafb"
   points=""
   id="polygon972" />

	<g
   transform="matrix(0.50058834,0,0,0.50058834,1655.5034,398.56842)"
   id="g1034">
  <path
     id="path970"
     d="m 666.3,296.5 c 0,-32.5 -40.7,-63.3 -103.1,-82.4 14.4,-63.6 8,-114.2 -20.2,-130.4 -6.5,-3.8 -14.1,-5.6 -22.4,-5.6 v 22.3 c 4.6,0 8.3,0.9 11.4,2.6 13.6,7.8 19.5,37.5 14.9,75.7 -1.1,9.4 -2.9,19.3 -5.1,29.4 -19.6,-4.8 -41,-8.5 -63.5,-10.9 -13.5,-18.5 -27.5,-35.3 -41.6,-50 32.6,-30.3 63.2,-46.9 84,-46.9 V 78 c 0,0 0,0 0,0 -27.5,0 -63.5,19.6 -99.9,53.6 C 384.4,97.8 348.4,78.4 320.9,78.4 v 22.3 c 20.7,0 51.4,16.5 84,46.6 -14,14.7 -28,31.4 -41.3,49.9 -22.6,2.4 -44,6.1 -63.6,11 -2.3,-10 -4,-19.7 -5.2,-29 -4.7,-38.2 1.1,-67.9 14.6,-75.8 3,-1.8 6.9,-2.6 11.5,-2.6 V 78.5 c 0,0 0,0 0,0 -8.4,0 -16,1.8 -22.6,5.6 -28.1,16.2 -34.4,66.7 -19.9,130.1 -62.2,19.2 -102.7,49.9 -102.7,82.3 0,32.5 40.7,63.3 103.1,82.4 -14.4,63.6 -8,114.2 20.2,130.4 6.5,3.8 14.1,5.6 22.5,5.6 27.5,0 63.5,-19.6 99.9,-53.6 36.4,33.8 72.4,53.2 99.9,53.2 8.4,0 16,-1.8 22.6,-5.6 28.1,-16.2 34.4,-66.7 19.9,-130.1 62,-19.1 102.5,-49.9 102.5,-82.3 z M 536.1,229.8 c -3.7,12.9 -8.3,26.2 -13.5,39.5 -4.1,-8 -8.4,-16 -13.1,-24 -4.6,-8 -9.5,-15.8 -14.4,-23.4 14.2,2.1 27.9,4.7 41,7.9 z m -45.8,106.5 c -7.8,13.5 -15.8,26.3 -24.1,38.2 -14.9,1.3 -30,2 -45.2,2 -15.1,0 -30.2,-0.7 -45,-1.9 -8.3,-11.9 -16.4,-24.6 -24.2,-38 -7.6,-13.1 -14.5,-26.4 -20.8,-39.8 6.2,-13.4 13.2,-26.8 20.7,-39.9 7.8,-13.5 15.8,-26.3 24.1,-38.2 14.9,-1.3 30,-2 45.2,-2 15.1,0 30.2,0.7 45,1.9 8.3,11.9 16.4,24.6 24.2,38 7.6,13.1 14.5,26.4 20.8,39.8 -6.3,13.4 -13.2,26.8 -20.7,39.9 z m 32.3,-13 c 5.4,13.4 10,26.8 13.8,39.8 -13.1,3.2 -26.9,5.9 -41.2,8 4.9,-7.7 9.8,-15.6 14.4,-23.7 4.6,-8 8.9,-16.1 13,-24.1 z M 421.2,430 c -9.3,-9.6 -18.6,-20.3 -27.8,-32 9,0.4 18.2,0.7 27.5,0.7 9.4,0 18.7,-0.2 27.8,-0.7 -9,11.7 -18.3,22.4 -27.5,32 z m -74.4,-58.9 c -14.2,-2.1 -27.9,-4.7 -41,-7.9 3.7,-12.9 8.3,-26.2 13.5,-39.5 4.1,8 8.4,16 13.1,24 4.7,8 9.5,15.8 14.4,23.4 z M 420.7,163 c 9.3,9.6 18.6,20.3 27.8,32 -9,-0.4 -18.2,-0.7 -27.5,-0.7 -9.4,0 -18.7,0.2 -27.8,0.7 9,-11.7 18.3,-22.4 27.5,-32 z m -74,58.9 c -4.9,7.7 -9.8,15.6 -14.4,23.7 -4.6,8 -8.9,16 -13,24 -5.4,-13.4 -10,-26.8 -13.8,-39.8 13.1,-3.1 26.9,-5.8 41.2,-7.9 z m -90.5,125.2 c -35.4,-15.1 -58.3,-34.9 -58.3,-50.6 0,-15.7 22.9,-35.6 58.3,-50.6 8.6,-3.7 18,-7 27.7,-10.1 5.7,19.6 13.2,40 22.5,60.9 -9.2,20.8 -16.6,41.1 -22.2,60.6 -9.9,-3.1 -19.3,-6.5 -28,-10.2 z M 310,490 c -13.6,-7.8 -19.5,-37.5 -14.9,-75.7 1.1,-9.4 2.9,-19.3 5.1,-29.4 19.6,4.8 41,8.5 63.5,10.9 13.5,18.5 27.5,35.3 41.6,50 -32.6,30.3 -63.2,46.9 -84,46.9 -4.5,-0.1 -8.3,-1 -11.3,-2.7 z m 237.2,-76.2 c 4.7,38.2 -1.1,67.9 -14.6,75.8 -3,1.8 -6.9,2.6 -11.5,2.6 -20.7,0 -51.4,-16.5 -84,-46.6 14,-14.7 28,-31.4 41.3,-49.9 22.6,-2.4 44,-6.1 63.6,-11 2.3,10.1 4.1,19.8 5.2,29.1 z m 38.5,-66.7 c -8.6,3.7 -18,7 -27.7,10.1 -5.7,-19.6 -13.2,-40 -22.5,-60.9 9.2,-20.8 16.6,-41.1 22.2,-60.6 9.9,3.1 19.3,6.5 28.1,10.2 35.4,15.1 58.3,34.9 58.3,50.6 -0.1,15.7 -23,35.6 -58.4,50.6 z"
     fill="#61dafb" />
  <circle
     id="circle974"
     r="45.700001"
     cy="296.5"
     cx="420.89999"
     fill="#61dafb" />
</g>

	<polygon
   fill="#61dafb"
   points=""
   id="polygon976" />

</g>
    <g
       inkscape:export-ydpi="150"
       inkscape:export-xdpi="150"
       transform="matrix(0.0625,0,0,0.0625,109.56482,113.39863)"
       id="g1009"
       style="fill:none">
      <rect
         y="0"
         x="0"
         fill="#3178c6"
         height="512"
         rx="50"
         width="512"
         id="rect992" />
      <rect
         y="0"
         x="0"
         fill="#3178c6"
         height="512"
         rx="50"
         width="512"
         id="rect994" />
      <path
         clip-rule="evenodd"
         d="m 316.939,407.424 v 50.061 c 8.138,4.172 17.763,7.3 28.875,9.386 11.112,2.086 22.823,3.129 35.135,3.129 11.999,0 23.397,-1.147 34.196,-3.442 10.799,-2.294 20.268,-6.075 28.406,-11.342 8.138,-5.266 14.581,-12.15 19.328,-20.65 4.747,-8.5 7.121,-19.007 7.121,-31.522 0,-9.074 -1.356,-17.026 -4.069,-23.857 -2.713,-6.831 -6.625,-12.906 -11.738,-18.225 -5.112,-5.319 -11.242,-10.091 -18.389,-14.315 -7.147,-4.224 -15.207,-8.213 -24.18,-11.967 -6.573,-2.712 -12.468,-5.345 -17.685,-7.9 -5.217,-2.556 -9.651,-5.163 -13.303,-7.822 -3.652,-2.66 -6.469,-5.476 -8.451,-8.448 -1.982,-2.973 -2.974,-6.336 -2.974,-10.091 0,-3.441 0.887,-6.544 2.661,-9.308 1.774,-2.764 4.278,-5.136 7.512,-7.118 3.235,-1.981 7.199,-3.52 11.894,-4.615 4.696,-1.095 9.912,-1.642 15.651,-1.642 4.173,0 8.581,0.313 13.224,0.938 4.643,0.626 9.312,1.591 14.008,2.894 4.695,1.304 9.259,2.947 13.694,4.928 4.434,1.982 8.529,4.276 12.285,6.884 v -46.776 c -7.616,-2.92 -15.937,-5.084 -24.962,-6.492 -9.025,-1.408 -19.381,-2.112 -31.066,-2.112 -11.895,0 -23.163,1.278 -33.805,3.833 -10.642,2.555 -20.006,6.544 -28.093,11.967 -8.086,5.424 -14.476,12.333 -19.171,20.729 -4.695,8.395 -7.043,18.433 -7.043,30.114 0,14.914 4.304,27.638 12.912,38.172 8.607,10.533 21.675,19.45 39.204,26.751 6.886,2.816 13.303,5.579 19.25,8.291 5.947,2.712 11.086,5.528 15.415,8.448 4.33,2.92 7.747,6.101 10.252,9.543 2.504,3.441 3.756,7.352 3.756,11.733 0,3.233 -0.783,6.231 -2.348,8.995 -1.565,2.764 -3.939,5.162 -7.121,7.196 -3.182,2.034 -7.147,3.624 -11.894,4.771 -4.748,1.148 -10.303,1.721 -16.668,1.721 -10.851,0 -21.597,-1.903 -32.24,-5.71 -10.642,-3.806 -20.502,-9.516 -29.579,-17.13 z M 232.78,284.082 H 297 V 243 H 118 v 41.082 h 63.906 V 467 h 50.874 z"
         fill="#ffffff"
         fill-rule="evenodd"
         id="path996" />
    </g>
    <g
       inkscape:export-ydpi="150"
       inkscape:export-xdpi="150"
       transform="matrix(0.03654219,0,0,0.03654219,109.9916,17.275089)"
       id="g1030">
      <path
         fill="#ffffff"
         d="M 387,0 774,218.9 V 656.8 L 387,875.7 0,656.8 V 218.9 Z"
         id="path1013" />
      <path
         fill="#8ed6fb"
         d="M 704.9,641.7 399.8,814.3 V 679.9 L 589.9,575.3 Z m 20.9,-18.9 V 261.9 l -111.6,64.5 v 232 z M 67.9,641.7 373,814.3 V 679.9 L 182.8,575.3 Z M 47,622.8 V 261.9 l 111.6,64.5 v 232 z M 60.1,238.5 373,61.5 v 129.9 l -200.5,110.3 -1.6,0.9 z m 652.6,0 -312.9,-177 v 129.9 l 200.5,110.2 1.6,0.9 z"
         id="path1015" />
      <path
         fill="#1c78c0"
         d="M 373,649.3 185.4,546.1 V 341.8 L 373,450.1 Z m 26.8,0 187.6,-103.1 V 341.8 L 399.8,450.1 Z m -13.4,-207 z M 198.1,318.2 386.4,214.7 574.7,318.2 386.4,426.9 Z"
         id="path1017" />
    </g>
    <g
       inkscape:export-ydpi="150"
       inkscape:export-xdpi="150"
       transform="matrix(0.4173829,0,0,0.4173829,74.891644,54.425677)"
       id="g1148">
      <path
         style="fill:#fea612;fill-opacity:1;stroke-width:0.218672"
         id="path1087"
         fill="#ffc24a"
         d="m -133.93656,67.53832 0.46413,-0.64989 21.95576,-41.66006 0.0464,-0.44102 -9.67857,-18.17975 c -0.81087,-1.52288 -3.09367,-1.13784 -3.35978,0.56691 z" />
      <path
         style="stroke-width:0.218672"
         id="path1095"
         fill="#f4bd62"
         d="m -104.41472,38.53868 7.2064,-7.38046 -7.20849,-13.76108 c -0.68429,-1.30258 -2.59489,-1.30634 -3.27195,0 l -3.85117,7.34493 v 0.62555 z" />
      <g
         transform="matrix(0.21867228,0,0,0.21867228,-133.93656,5.65459)"
         id="g1101">
        <use
           id="use1097"
           xlink:href="#path-3"
           fill-rule="evenodd"
           fill="#ffa50e"
           x="0"
           y="0"
           width="100%"
           height="100%" />
        <use
           id="use1099"
           xlink:href="#path-3"
           filter="url(#filter-4)"
           fill-opacity="1"
           fill="#000000"
           x="0"
           y="0"
           width="100%"
           height="100%" />
      </g>
      <polygon
         transform="matrix(0.21867228,0,0,0.21867228,-133.93656,5.65459)"
         id="polygon1103"
         points="134.56303,148.1786 102.51312,87.104858 0,282.99762 0.96209717,282.0304 4.4577114,280.60956 132.93532,152.60956 "
         fill="#f6820c" />
      <path
         style="stroke-width:0.218672"
         id="path1105"
         fill="#fde068"
         d="M -103.51466,81.65442 -78.08855,67.47405 -85.3494,22.7568 c -0.22712,-1.39908 -1.94356,-1.9522 -2.94494,-0.94901 l -45.64217,45.73059 25.28031,14.11479 c 1.59766,0.89206 3.54346,0.89247 5.14154,10e-4" />
      <path
         style="stroke-width:0.218672"
         id="path1107"
         fill="#fcca3f"
         d="m -78.31638,67.35513 -7.20571,-44.37777 c -0.22541,-1.38847 -1.65276,-1.96302 -2.64654,-0.96745 l -45.48596,45.44164 25.00263,13.97505 c 1.58553,0.88529 3.51656,0.88571 5.1025,0.001 z" />
      <path
         style="stroke-width:0.218672"
         id="path1109"
         fill="#eeab37"
         d="m -103.51468,81.23666 c -1.59807,0.89122 -3.54387,0.8908 -5.14153,-0.001 l -25.07669,-13.91199 -0.20362,0.21503 25.28031,14.11479 c 1.59766,0.89206 3.54346,0.89247 5.14153,10e-4 l 25.42611,-14.18037 -0.0622,-0.38309 z" />
    </g>
  </g>
</svg>
